<?xml version="1.0"?><svg xmlns="http://www.w3.org/2000/svg" width="120" height="120" viewBox="0 0 120 120" shape-rendering="crispEdges"><rect x="0" y="0" width="120" height="120" fill="#050403"/><rect x="12" y="82" width="96" height="38" fill="#d8d0c4"/><rect x="6" y="92" width="108" height="28" fill="#d8d0c4"/><rect x="44" y="76" width="32" height="18" fill="#c9956a"/><rect x="24" y="86" width="48" height="8" fill="#6b4423"/><rect x="48" y="68" width="24" height="16" fill="#c9956a"/><rect x="36" y="22" width="48" height="50" fill="#c9956a"/><rect x="40" y="18" width="40" height="8" fill="#c9956a"/><rect x="34" y="8" width="52" height="24" fill="#e8e4dc"/><rect x="30" y="12" width="8" height="28" fill="#e8e4dc"/><rect x="82" y="12" width="8" height="28" fill="#e8e4dc"/><rect x="40" y="30" width="12" height="12" fill="#f8f4ee"/><rect x="42" y="32" width="8" height="8" fill="#2a2018"/><rect x="44" y="34" width="4" height="4" fill="#080604"/><rect x="48" y="32" width="2" height="2" fill="#fff"/><rect x="67" y="30" width="12" height="12" fill="#f8f4ee"/><rect x="69" y="32" width="8" height="8" fill="#2a2018"/><rect x="71" y="34" width="4" height="4" fill="#080604"/><rect x="75" y="32" width="2" height="2" fill="#fff"/><rect x="38" y="26" width="14" height="2" fill="#221810"/><rect x="67" y="26" width="14" height="2" fill="#221810"/><rect x="52" y="58" width="16" height="2" fill="#a06858"/></svg>
